<svg width="138" height="50" viewBox="0 0 138 50" fill="none" xmlns="http://www.w3.org/2000/svg">
<path d="M23.8069 4C18.3095 4.18368 13.1043 6.52412 9.31334 10.5168C5.52239 14.5095 3.44932 19.8346 3.541 25.3443C3.63269 30.854 5.8818 36.107 9.80349 39.9708C13.7252 43.8347 19.0054 46 24.5058 46C30.0063 46 35.2865 43.8347 39.2082 39.9708C43.1299 36.107 45.379 30.854 45.4707 25.3443C45.5623 19.8346 43.4893 14.5095 39.6983 10.5168C35.9074 6.52412 30.7022 4.18368 25.2048 4H23.8069ZM53.1617 4C47.6643 4.18368 42.4591 6.52412 38.6682 10.5168C34.8772 14.5095 32.8042 19.8346 32.8958 25.3443C32.9875 30.854 35.2366 36.107 39.1583 39.9708C43.08 43.8347 48.3602 46 53.8607 46C59.3611 46 64.6413 43.8347 68.563 39.9708C72.4847 36.107 74.7338 30.854 74.8255 25.3443C74.9172 19.8346 72.8441 14.5095 69.0532 10.5168C65.2622 6.52412 60.057 4.18368 54.5596 4H53.1617ZM82.5166 4C77.0192 4.18368 71.814 6.52412 68.023 10.5168C64.2321 14.5095 62.159 19.8346 62.2507 25.3443C62.3424 30.854 64.5915 36.107 68.5132 39.9708C72.4349 43.8347 77.715 46 83.2155 46C88.716 46 93.9961 43.8347 97.9178 39.9708C101.84 36.107 104.089 30.854 104.18 25.3443C104.272 19.8346 102.199 14.5095 98.408 10.5168C94.617 6.52412 89.4118 4.18368 83.9144 4H82.5166ZM111.871 4C106.374 4.18368 101.169 6.52412 97.3779 10.5168C93.5869 14.5095 91.5138 19.8346 91.6055 25.3443C91.6972 30.854 93.9463 36.107 97.868 39.9708C101.79 43.8347 107.07 46 112.57 46C118.071 46 123.351 43.8347 127.273 39.9708C131.194 36.107 133.443 30.854 133.535 25.3443C133.627 19.8346 131.554 14.5095 127.763 10.5168C123.972 6.52412 118.767 4.18368 113.269 4H111.871Z" stroke="white" stroke-opacity="0.6" stroke-width="7"/>
</svg>
