<svg width="415" height="57" viewBox="0 0 415 57" fill="none" xmlns="http://www.w3.org/2000/svg">
<g clip-path="url(#clip0_220_166)">
<path d="M159.567 8.03857V23.677H141.897V8.03857H132.113V48.9617H141.897V32.4463H159.567V48.9617H169.205V8.03857H168.767H159.567Z" fill="white" fill-opacity="0.6"/>
<path d="M204.836 8.03857L194.76 24.2617L184.538 8.03857H173.148L189.941 34.7847V48.9617H199.579V34.7847L216.373 8.03857H215.497H204.836Z" fill="white" fill-opacity="0.6"/>
<path d="M247.624 8.03857V38.0001C247.624 39.1693 246.748 40.0463 245.579 40.0463H229.954V8.03857H220.17V48.9617H248.938C251.567 48.9617 253.611 48.2309 255.071 46.7693C256.532 45.3078 257.262 43.2617 257.262 40.6309V8.03857H256.824H247.624Z" fill="white" fill-opacity="0.6"/>
<path d="M295.23 8.03857H266.462V48.9617H276.246V16.954H291.871C293.186 16.954 293.916 17.977 293.916 19.0001V48.9617H303.7V16.3693C303.7 13.7386 302.97 11.6924 301.51 10.2309C299.757 8.76934 297.713 8.03857 295.23 8.03857Z" fill="white" fill-opacity="0.6"/>
<path d="M341.23 8.03857H312.462V48.9617H341.23C343.713 48.9617 345.757 48.2309 347.364 46.7693C348.824 45.3078 349.554 43.2617 349.554 40.6309V16.3693C349.554 13.7386 348.824 11.6924 347.364 10.2309C345.903 8.76934 343.859 8.03857 341.23 8.03857ZM339.916 19.0001V38.0001C339.916 39.1693 339.04 40.0463 337.871 40.0463H322.246V16.954H337.725C339.04 16.954 339.916 17.8309 339.916 19.0001Z" fill="white" fill-opacity="0.6"/>
<path d="M366.494 8.03857C364.011 8.03857 361.821 8.76934 360.36 10.2309C358.9 11.6924 358.17 13.7386 358.17 16.3693V48.9617H367.808V36.2463H385.478V48.9617H395.262V8.03857H366.494ZM385.624 16.954V27.477H367.954V19.0001C367.954 17.977 368.684 16.954 369.998 16.954H385.624Z" fill="white" fill-opacity="0.6"/>
<path d="M414.538 8.03857H404.754V48.9617H414.538V8.03857Z" fill="white" fill-opacity="0.6"/>
<path d="M56.1762 57C86.8428 57 111.814 44.2846 111.814 28.5C111.668 12.7154 86.8428 0 56.1762 0C25.3635 0 0.538086 12.7154 0.538086 28.5C0.538086 44.2846 25.3635 57 56.1762 57ZM66.5444 42.9692C65.6682 45.1615 64.0619 49.6923 60.4111 51.5923C59.2428 52.1769 57.9286 52.4692 56.7603 52.4692C56.4682 52.4692 56.3222 52.4692 56.1762 52.4692C45.954 52.4692 36.3159 51.0077 28.4302 48.6692L28.1381 48.5231C27.4079 48.2308 26.9698 47.9385 26.9698 47.5C26.9698 47.0615 27.1159 46.9154 27.4079 46.6231C27.554 46.4769 27.7 46.3308 27.846 46.1846C29.7444 44.5769 35.2936 40.4846 45.8079 36.5385C49.4587 35.0769 54.1317 33.3231 58.9508 32.3C61.5794 31.7154 72.0936 30.1077 66.5444 42.9692ZM94.7286 14.3231C94.8746 14.0308 95.1667 13.7385 95.6048 13.5923C95.8968 13.5923 96.1889 13.5923 96.773 14.0308C103.344 18.1231 107.141 23.0923 107.141 28.5C107.141 38.2923 94.5825 46.7692 76.4746 50.4231C75.3063 50.7154 74.5762 50.7154 74.2841 50.4231C74.1381 50.2769 73.9921 49.9846 74.2841 49.5462C74.4302 49.4 74.5762 49.1077 74.7222 48.8154C84.5063 37.2692 92.1 20.1692 94.1444 15.2C94.4365 14.9077 94.5825 14.4692 94.7286 14.3231ZM45.8079 13.8846C46.6841 11.6923 48.2905 7.16154 51.9413 5.26154C53.1095 4.82308 54.5698 4.53077 55.7381 4.53077C56.0301 4.53077 56.1762 4.53077 56.3222 4.53077C66.5444 4.53077 76.1825 5.99231 84.0682 8.33077L84.3603 8.47692C85.0905 8.76923 85.5286 9.06154 85.5286 9.5C85.5286 9.93846 85.3825 10.0846 85.0905 10.3769C84.9444 10.5231 84.7984 10.6692 84.6524 10.8154C82.754 12.4231 77.2048 16.3692 66.8365 20.4615C63.1857 21.9231 58.5127 23.6769 53.6936 24.7C50.773 25.1385 40.2587 26.7462 45.8079 13.8846ZM35.7317 6.57692C36.9 6.28462 37.6302 6.28462 37.9222 6.57692C38.0682 6.72308 38.0682 7.01538 37.9222 7.45385C37.7762 7.6 37.6301 7.89231 37.4841 8.18462C27.7 19.7308 20.1063 36.8308 18.0619 41.8C17.9159 42.0923 17.7698 42.5308 17.6238 42.6769C17.4778 42.9692 17.1857 43.2615 16.7476 43.4077C16.4555 43.4077 16.1635 43.4077 15.5794 42.9692C9.00793 38.8769 5.2111 33.9077 5.2111 28.5C5.06507 18.7077 17.7698 10.2308 35.7317 6.57692Z" fill="white" fill-opacity="0.6"/>
</g>
<defs>
<clipPath id="clip0_220_166">
<rect width="414" height="57" fill="white" transform="translate(0.538086)"/>
</clipPath>
</defs>
</svg>
