<svg width="23" height="23" viewBox="0 0 23 23" fill="none" xmlns="http://www.w3.org/2000/svg">
<path d="M11.5 2.07216C14.5706 2.07216 14.9343 2.08384 16.1469 2.13909C17.2681 2.1903 17.8771 2.37762 18.2824 2.53512C18.8191 2.74374 19.2022 2.99296 19.6046 3.39537C20.0071 3.79779 20.2563 4.18088 20.4649 4.71761C20.6224 5.12289 20.8097 5.73185 20.8609 6.85301C20.9162 8.06572 20.9278 8.42941 20.9278 11.5C20.9278 14.5707 20.9162 14.9344 20.8609 16.147C20.8097 17.2682 20.6224 17.8771 20.4649 18.2824C20.2563 18.8191 20.007 19.2023 19.6046 19.6047C19.2022 20.0071 18.8191 20.2564 18.2824 20.4649C17.8771 20.6224 17.2681 20.8098 16.1469 20.8609C14.9345 20.9163 14.5708 20.9279 11.5 20.9279C8.42914 20.9279 8.06545 20.9163 6.85301 20.8609C5.73176 20.8097 5.12289 20.6224 4.71761 20.4649C4.18088 20.2564 3.7977 20.0071 3.39529 19.6047C2.99288 19.2022 2.74365 18.8191 2.53512 18.2824C2.37762 17.8772 2.19021 17.2682 2.13909 16.147C2.08375 14.9344 2.07207 14.5707 2.07207 11.5C2.07207 8.42941 2.08375 8.06572 2.13909 6.8531C2.1903 5.73185 2.37762 5.12289 2.53512 4.71761C2.74365 4.18088 2.99288 3.79779 3.39529 3.39537C3.79779 2.99287 4.18088 2.74374 4.71761 2.53512C5.1228 2.37762 5.73176 2.1903 6.85301 2.13909C8.06563 2.08384 8.42932 2.07216 11.5 2.07216V2.07216ZM11.5 0C8.37676 0 7.98513 0.013207 6.75859 0.0691797C5.53446 0.125062 4.69847 0.319484 3.96705 0.60375C3.21075 0.897629 2.56944 1.29087 1.93011 1.9302C1.29079 2.56953 0.897629 3.21084 0.60375 3.96705C0.319395 4.69856 0.125062 5.53455 0.0691797 6.75859C0.013207 7.98513 0 8.37676 0 11.5C0 14.6232 0.013207 15.0149 0.0691797 16.2414C0.125062 17.4655 0.319395 18.3015 0.60375 19.0329C0.897539 19.7892 1.29079 20.4306 1.93011 21.0699C2.56944 21.7092 3.21075 22.1024 3.96705 22.3962C4.69856 22.6806 5.53446 22.8749 6.7585 22.9308C7.98513 22.9868 8.37676 23 11.5 23C14.6232 23 15.0149 22.9868 16.2414 22.9308C17.4654 22.8749 18.3014 22.6806 19.0329 22.3962C19.7892 22.1025 20.4305 21.7092 21.0698 21.0699C21.7091 20.4306 22.1024 19.7893 22.3962 19.0329C22.6805 18.3014 22.8749 17.4655 22.9308 16.2415C22.9868 15.0149 23 14.6232 23 11.5C23 8.37676 22.9868 7.98513 22.9308 6.75859C22.8749 5.53455 22.6805 4.69856 22.3962 3.96714C22.1024 3.21084 21.7091 2.56953 21.0698 1.9302C20.4305 1.29087 19.7892 0.897539 19.0329 0.60375C18.3014 0.319484 17.4654 0.125062 16.2414 0.0691797C15.0149 0.013207 14.6232 0 11.5 0ZM11.5 5.59457C8.23849 5.59457 5.59457 8.23867 5.59457 11.5C5.59457 14.7615 8.23849 17.4054 11.5 17.4054C14.7614 17.4054 17.4054 14.7615 17.4054 11.5C17.4054 8.23858 14.7614 5.59457 11.5 5.59457V5.59457ZM11.5 15.3334C9.38292 15.3334 7.66664 13.6171 7.66664 11.5C7.66664 9.38292 9.38292 7.66664 11.5 7.66664C13.6171 7.66664 15.3334 9.38292 15.3334 11.5C15.3334 13.6171 13.6171 15.3334 11.5 15.3334ZM19.0187 5.36125C19.0187 6.12348 18.4009 6.74125 17.6387 6.74125C16.8765 6.74125 16.2587 6.12348 16.2587 5.36125C16.2587 4.5991 16.8765 3.98125 17.6387 3.98125C18.4009 3.98125 19.0187 4.5991 19.0187 5.36125V5.36125Z" fill="white"/>
</svg>
