<svg width="64" height="126" viewBox="0 0 64 126" fill="none" xmlns="http://www.w3.org/2000/svg">
<path d="M63.2292 42.4162C62.506 41.693 61.4213 41.3917 60.4571 41.7533L17.5492 56.8193L37.1952 17.2862L34.7244 38.0772L39.9071 38.6799L44.1858 2.94341C44.3064 1.67787 43.5832 0.472598 42.3177 0.111015C41.1124 -0.250568 39.7866 0.291806 39.2442 1.43682L11.1613 57.9643C10.4984 59.2901 10.7394 60.8569 11.7037 62.002C12.6679 63.0867 14.2347 63.5085 15.6208 63.0264L56.6605 48.6234L51.2367 61.3993L56.0578 63.4483L63.7113 45.2486C64.1332 44.2844 63.9524 43.1996 63.2292 42.4162Z" fill="url(#paint0_linear_229_299)"/>
<path d="M49.7301 70.0773L6.762 85.083L11.5228 75.4408L6.88253 73.1508L0.374038 86.2883C-0.288864 87.6141 -0.0478088 89.1809 0.916412 90.326C1.88063 91.4107 3.44749 91.8326 4.83356 91.3504L45.9335 76.9474L32.0125 110.032L31.9523 99.245L26.7696 99.3053L26.9504 122.748C26.9504 124.013 27.8543 125.038 29.0596 125.279C29.2404 125.339 29.4212 125.339 29.5417 125.339C30.5662 125.339 31.5304 124.737 31.9523 123.772L52.9843 73.5124C53.4062 72.5481 53.1651 71.4634 52.5022 70.7402C51.7791 70.0171 50.6943 69.7157 49.7301 70.0773Z" fill="url(#paint1_linear_229_299)"/>
<defs>
<linearGradient id="paint0_linear_229_299" x1="39.1259" y1="-1.33435" x2="37.2745" y2="54.3641" gradientUnits="userSpaceOnUse">
<stop stop-color="#89DED6"/>
<stop offset="0.3521" stop-color="#87DAD8"/>
<stop offset="0.6918" stop-color="#7FCFDD"/>
<stop offset="1" stop-color="#74BDE6"/>
</linearGradient>
<linearGradient id="paint1_linear_229_299" x1="26.6145" y1="69.9174" x2="26.6145" y2="125.263" gradientUnits="userSpaceOnUse">
<stop stop-color="#74BDE6"/>
<stop offset="0.1518" stop-color="#66A9DA"/>
<stop offset="0.4185" stop-color="#518CC7"/>
<stop offset="0.5705" stop-color="#4981C0"/>
<stop offset="0.723" stop-color="#556ED7"/>
<stop offset="0.8784" stop-color="#5D61E6"/>
<stop offset="1" stop-color="#605CEC"/>
</linearGradient>
</defs>
</svg>
