<svg width="215" height="40" viewBox="0 0 215 40" fill="none" xmlns="http://www.w3.org/2000/svg">
<path d="M0.685547 0.113088C0.962152 2.00725 1.51456 3.73308 2.28537 5.11127C3.05619 6.48947 4.01729 7.46974 5.06881 7.95023H11.9129L12.2636 8.19905V39.3892H16.5341V8.24424L16.9224 7.99543H23.7728C24.8208 7.50201 25.7781 6.5174 26.5478 5.14122C27.3175 3.76504 27.8723 2.04611 28.156 0.158345V0.079151H0.685568V0.113088H0.685547ZM150.098 0.0678743H145.84V39.4796H165.339C166.263 38.8339 167.085 37.789 167.734 36.4366C168.382 35.0841 168.837 33.4653 169.059 31.7217H150.085L150.098 0.0678743V0.0678743ZM117.33 7.82582C119.597 6.69489 121.5 3.50579 121.958 0.045278L98.1002 0.113088V23.3531H117.618V31.5294H102.302C101.134 32.0761 100.044 33.0645 99.1039 34.4292C98.1636 35.7939 97.3946 37.5039 96.8478 39.4457H121.826V15.6177H102.314V7.82585H117.33V7.82582ZM190.073 39.457H194.306V23.6019H209.698V39.457H213.924V15.6856L190.073 15.6403V39.4571L190.073 39.457ZM54.1299 7.9163H70.4105C71.4771 7.45291 72.4527 6.46968 73.2312 5.07378C74.0096 3.67788 74.5609 1.92286 74.8251 0H49.7154C49.9821 1.92064 50.5343 3.67319 51.3123 5.06835C52.0903 6.46352 53.0646 7.44829 54.1299 7.9163V7.9163ZM54.1299 23.4887H70.4105C71.4765 23.023 72.4515 22.039 73.2297 20.6435C74.0079 19.248 74.5597 17.4942 74.8251 15.5725H49.7154C49.9833 17.492 50.5359 19.2433 51.3138 20.6381C52.0916 22.0329 53.0652 23.0184 54.1299 23.4887V23.4887ZM54.1299 39.4796H70.4105C71.4765 39.0139 72.4515 38.0299 73.2297 36.6344C74.0079 35.2389 74.5597 33.4851 74.8251 31.5634H49.7154C49.9827 33.4834 50.5351 35.2354 51.313 36.6304C52.0909 38.0253 53.0649 39.0105 54.1299 39.4796V39.4796ZM193.837 7.93889H210.117C211.185 7.47617 212.161 6.49337 212.941 5.09753C213.72 3.70169 214.273 1.94632 214.538 0.0225963H189.422C189.688 1.94435 190.239 3.69812 191.018 5.09366C191.796 6.48919 192.771 7.47319 193.837 7.93889V7.93889Z" fill="white" fill-opacity="0.6"/>
</svg>
