<svg width="319" height="58" viewBox="0 0 319 58" fill="none" xmlns="http://www.w3.org/2000/svg">
<path d="M228.602 42.2761C234.44 42.1434 239.35 36.6961 239.416 29.9204C239.35 23.0782 234.507 17.5647 228.602 17.5647C222.499 17.4982 217.656 23.0116 217.854 29.9204C217.656 36.6295 222.499 42.1434 228.602 42.2761ZM209.097 29.9204C209.097 19.0925 217.788 10.3904 228.602 10.3904C239.217 10.3904 247.908 19.0925 248.107 29.9204C247.908 40.6156 239.217 49.3177 228.602 49.4505C217.722 49.3177 209.031 40.6156 209.097 29.9204Z" fill="white" fill-opacity="0.6"/>
<path d="M269.88 18.3632V48.787H261.863V18.3632H250.354V11.5872H280.871V18.3632H269.88Z" fill="white" fill-opacity="0.6"/>
<path d="M298.749 34.1778H303.849L298.749 20.583L293.649 34.1778H298.749ZM290.999 40.4002L287.953 48.787H278.216L293.583 11.5872H303.849L318.686 48.787H308.949L305.902 40.4002H290.999Z" fill="white" fill-opacity="0.6"/>
<path d="M119.756 18.3632V48.787H111.601V18.3632H100.42V11.5872H130.937V18.3632H119.756Z" fill="white" fill-opacity="0.6"/>
<path d="M152.108 42.2761C158.012 42.1434 162.922 36.6961 162.922 29.9204C162.922 23.0782 158.079 17.5647 152.108 17.5647C146.07 17.4982 141.228 23.0116 141.36 29.9204C141.161 36.6295 146.004 42.1434 152.108 42.2761ZM132.536 29.9204C132.536 19.0925 141.228 10.3904 152.041 10.3904C162.723 10.3904 171.414 19.0925 171.546 29.9204C171.414 40.6156 162.723 49.3177 152.108 49.4505C141.294 49.3177 132.603 40.6156 132.536 29.9204Z" fill="white" fill-opacity="0.6"/>
<path d="M189.619 48.787H193.68V34.6255L207.896 11.5872H198.79L189.619 27.3074L181.037 11.5872H171.407L185.623 34.6255V48.787H189.619Z" fill="white" fill-opacity="0.6"/>
<path d="M48.2552 54.3112C52.2454 50.5538 55.5551 41.5487 55.5551 30.3075C55.5551 29.6865 55.5551 29.1276 55.5551 28.5064C70.4952 26.3016 76.6198 19.7806 77.6715 15.1537C81.043 18.849 82.899 23.4139 82.4969 29.0344C81.5998 42.3249 67.2782 53.1002 48.2552 54.3112ZM44.4196 45.5233C40.9862 45.5233 37.8311 37.9775 37.5836 29.0032C37.5836 29.0032 38.5425 29.0964 39.8416 29.1585C41.2027 29.2206 42.9349 29.2828 44.2339 29.2828H44.5742C45.8734 29.2828 47.6055 29.2517 48.9666 29.1585C50.2656 29.0964 51.2246 29.0032 51.2246 29.0032C51.0081 38.0086 47.822 45.5233 44.4196 45.5233ZM6.34233 29.0653C5.97115 23.4448 7.82706 18.8801 11.1677 15.1848C12.1884 19.8117 18.3439 26.3016 33.2841 28.5375C33.2531 29.1276 33.2841 29.7174 33.2841 30.3386C33.2841 41.5796 36.5629 50.616 40.5531 54.3423C21.5608 53.1002 7.23936 42.3249 6.34233 29.0653ZM50.6059 21.8922C48.6263 22.0785 46.523 22.1717 44.4196 22.1717C42.3162 22.1717 40.1818 22.0785 38.2331 21.8922C39.285 15.5574 41.6976 11.1169 44.4196 11.1169H44.4505C47.1106 11.1169 49.5234 15.5574 50.6059 21.8922ZM44.3886 3.75738C58.6483 3.75738 69.8767 8.07371 69.8767 12.9801C69.8767 16.7064 63.7212 19.9359 54.8437 21.3644C53.2661 11.7379 49.1831 4.87527 44.4196 4.84422C39.6561 4.87527 35.5729 11.7379 33.9955 21.3644C25.0872 19.9359 18.9625 16.7374 18.9625 12.9801C18.9317 8.07371 30.1599 3.75738 44.3886 3.75738ZM44.4196 0C19.8904 0.124211 -0.184306 12.6695 0.00127646 29.1276C0.155935 45.5545 20.1688 57.7271 44.4196 57.7271H44.4505C68.7012 57.7271 88.7142 45.5545 88.8688 29.1276C88.9926 12.6695 68.9177 0.124211 44.4196 0Z" fill="white" fill-opacity="0.6"/>
</svg>
