<svg width="23" height="18" viewBox="0 0 23 18" fill="none" xmlns="http://www.w3.org/2000/svg">
<path d="M23 2.13513C22.1542 2.49594 21.2456 2.73973 20.2904 2.84992C21.276 2.28218 22.0133 1.38861 22.3649 0.33596C21.4389 0.865461 20.4254 1.23817 19.3686 1.43789C18.6579 0.707364 17.7165 0.22316 16.6907 0.0604524C15.6648 -0.102255 14.6119 0.0656378 13.6953 0.538065C12.7787 1.01049 12.0498 1.76102 11.6217 2.67313C11.1936 3.58523 11.0903 4.60789 11.3278 5.58232C9.4515 5.49162 7.61598 5.02214 5.94036 4.20432C4.26474 3.38651 2.78646 2.23865 1.60147 0.835242C1.19629 1.5081 0.963314 2.28823 0.963314 3.11906C0.962862 3.86701 1.15419 4.60349 1.52031 5.26318C1.88644 5.92286 2.41604 6.48535 3.06214 6.90073C2.31284 6.87778 1.58007 6.68286 0.924822 6.33221V6.39072C0.924746 7.43974 1.30167 8.45648 1.99164 9.26841C2.68161 10.0803 3.64213 10.6375 4.71021 10.8453C4.01511 11.0264 3.28635 11.053 2.57897 10.9233C2.88032 11.8259 3.46732 12.6152 4.25779 13.1807C5.04827 13.7462 6.00265 14.0595 6.98732 14.0769C5.31578 15.3402 3.25145 16.0254 1.1264 16.0224C0.749968 16.0225 0.373855 16.0013 0 15.959C2.15705 17.2941 4.66801 18.0027 7.23245 18C15.9134 18 20.6591 11.0783 20.6591 5.07523C20.6591 4.8802 20.654 4.68322 20.6449 4.48819C21.568 3.84553 22.3648 3.04973 22.998 2.13805L23 2.13513V2.13513Z" fill="white"/>
</svg>
